<svg fill="none" viewBox="0 0 48 48" xmlns="http://www.w3.org/2000/svg">
  <path clip-rule="evenodd" d="M8.903 14.287C12.145 9.012 17.969 5.5 24.613 5.5c9.187 0 16.816 6.723 18.207 15.522a1.5 1.5 0 102.963-.468C44.165 10.317 35.296 2.5 24.613 2.5c-7.707 0-14.46 4.065-18.235 10.166a434.64 434.64 0 01-.848-3.129l-.08-.301L4 9.62l1.45-.384a1.501 1.501 0 00-2.9.77L4 9.62l-1.45.386.082.306a521.379 521.379 0 00.88 3.247c.245.885.495 1.779.694 2.451.098.334.188.629.26.846.035.103.076.218.118.32.017.04.058.137.12.242a1.514 1.514 0 00.655.606c.228.11.614.22 1.065.09l7.233-2.066a1.501 1.501 0 00-.823-2.885l-3.931 1.123z"
        fill="#1DBB79"
        fill-rule="evenodd"/>
  <path clip-rule="evenodd" d="M4.745 25.434A1.5 1.5 0 016.46 26.68c1.391 8.8 9.02 15.522 18.207 15.522 6.644 0 12.468-3.513 15.71-8.786l-3.93 1.122-.413-1.441-.412-1.443 7.234-2.066a1.504 1.504 0 011.486.39c.133.135.21.265.235.306.061.105.102.202.12.243.041.1.082.217.116.32.073.216.163.511.262.845.198.673.449 1.566.693 2.452a435.007 435.007 0 01.88 3.246l.082.305s0 .002-1.45.387l-1.45.386-.08-.303a501.5 501.5 0 00-.848-3.128c-3.775 6.1-10.528 10.165-18.235 10.165-10.683 0-19.552-7.817-21.17-18.053a1.5 1.5 0 011.248-1.716zm40.535 12.65l-1.45.385a1.5 1.5 0 102.9-.773l-1.45.387zm-9.246-4.986l-.412-1.443a1.5 1.5 0 10.826 2.884l-.414-1.441z"
        fill="#FF2F54"
        fill-rule="evenodd"/>
</svg>
